# Blender v2.83.1 OBJ File: 'corrot.blend'
# www.blender.org
mtllib corrot.mtl
o Circle
v -0.000000 0.629028 -0.330370
v -0.314201 0.629028 -0.102090
v -0.194187 0.629028 0.267275
v 0.194187 0.629028 0.267275
v 0.314201 0.629028 -0.102090
v -0.000000 -0.857766 0.000000
v 0.254841 0.331670 -0.082803
v 0.195481 0.034311 -0.063516
v 0.136121 -0.263048 -0.044228
v 0.076761 -0.560407 -0.024941
v 0.047441 -0.560407 0.065297
v 0.084127 -0.263048 0.115791
v 0.120814 0.034311 0.166286
v 0.157500 0.331670 0.216780
v -0.157500 0.331670 0.216780
v -0.120814 0.034311 0.166286
v -0.084127 -0.263048 0.115791
v -0.047441 -0.560407 0.065297
v -0.076761 -0.560407 -0.024941
v -0.136121 -0.263048 -0.044228
v -0.195481 0.034311 -0.063516
v -0.254841 0.331670 -0.082803
v -0.000000 0.331670 -0.267955
v -0.000000 0.034311 -0.205541
v -0.000000 -0.263048 -0.143126
v -0.000000 -0.560407 -0.080711
vt 0.000000 0.000000
vt 0.000000 0.000000
vt 0.000000 0.000000
vt 0.000000 0.000000
vt 0.000000 0.000000
vt 0.000000 0.000000
vt 0.000000 0.000000
vt 0.000000 0.000000
vt 0.000000 0.000000
vt 0.000000 0.000000
vt 0.000000 0.000000
vt 0.000000 0.000000
vt 0.000000 0.000000
vt 0.000000 0.000000
vt 0.000000 0.000000
vt 0.000000 0.000000
vt 0.000000 0.000000
vt 0.000000 0.000000
vt 0.000000 0.000000
vt 0.000000 0.000000
vt 0.000000 0.000000
vt 0.000000 0.000000
vt 0.000000 0.000000
vt 0.000000 0.000000
vt 0.000000 0.000000
vt 0.000000 0.000000
vn 0.0000 -1.0000 0.0000
vn -0.9289 0.2145 -0.3018
vn 0.9289 0.2145 -0.3018
vn -0.5741 0.2145 0.7902
vn -0.0000 0.2145 -0.9767
vn 0.5741 0.2145 0.7902
vn 0.5795 0.1674 0.7976
vn -0.0000 0.1674 -0.9859
vn -0.5795 0.1674 0.7976
vn 0.9376 0.1674 -0.3047
vn -0.9376 0.1674 -0.3047
usemtl None
s off
f 2/1/1 1/2/1 5/3/1 4/4/1 3/5/1
f 11/6/2 10/7/2 6/8/2
f 19/9/3 18/10/3 6/8/3
f 10/7/4 26/11/4 6/8/4
f 18/10/5 11/6/5 6/8/5
f 26/11/6 19/9/6 6/8/6
f 1/2/7 2/1/7 22/12/7 23/13/7
f 23/13/7 22/12/7 21/14/7 24/15/7
f 24/15/7 21/14/7 20/16/7 25/17/7
f 25/17/7 20/16/7 19/9/7 26/11/7
f 3/5/8 4/4/8 14/18/8 15/19/8
f 15/19/8 14/18/8 13/20/8 16/21/8
f 16/21/8 13/20/8 12/22/8 17/23/8
f 17/23/8 12/22/8 11/6/8 18/10/8
f 5/3/9 1/2/9 23/13/9 7/24/9
f 7/24/9 23/13/9 24/15/9 8/25/9
f 8/25/9 24/15/9 25/17/9 9/26/9
f 9/26/9 25/17/9 26/11/9 10/7/9
f 2/1/10 3/5/10 15/19/10 22/12/10
f 22/12/10 15/19/10 16/21/10 21/14/10
f 21/14/10 16/21/10 17/23/10 20/16/10
f 20/16/10 17/23/10 18/10/10 19/9/10
f 4/4/11 5/3/11 7/24/11 14/18/11
f 14/18/11 7/24/11 8/25/11 13/20/11
f 13/20/11 8/25/11 9/26/11 12/22/11
f 12/22/11 9/26/11 10/7/11 11/6/11
